<svg width="1000" height="1000" version="1.1" xmlns="http://www.w3.org/2000/svg" desc="Created with ImageTracerAndroid.java version 1.1.2" ><path desc="l 1 p 0" fill="rgb(0,0,0)" stroke="rgb(0,0,0)" stroke-width="1" opacity="0.0" d="M 0.5 0.0 L 1000.0 0.5 L 999.5 1000.0 L 0.0 999.5 L 0.5 0.0 Z" /><path desc="l 0 p 0" fill="rgb(254,131,38)" stroke="rgb(254,131,38)" stroke-width="1" opacity="0.996078431372549" d="M 125.5 90.0 L 250.0 90.5 L 250.5 654.0 L 346.0 653.5 L 346.5 90.0 L 910.0 90.5 L 909.5 875.0 L 652.5 875.0 L 588.5 875.0 L 572.5 875.0 Q 566.5 876.5 565.0 873.5 L 565.0 782.5 L 565.0 759.5 L 565.0 753.5 L 566.5 750.0 L 785.0 749.5 L 784.5 215.0 L 471.0 215.5 L 470.5 750.0 L 346.0 750.5 L 345.5 875.0 L 250.0 874.5 L 249.5 750.0 L 125.0 749.5 L 125.5 90.0 Z" /><path desc="l 0 p 1" fill="rgb(254,131,38)" stroke="rgb(254,131,38)" stroke-width="1" opacity="0.996078431372549" d="M 565.5 310.0 L 690.0 310.5 L 689.5 654.0 L 565.0 653.5 L 565.5 310.0 Z" /></svg>